<?xml version="1.0" encoding="UTF-8"?>
<svg width="242px" height="247px" viewBox="0 0 242 247" version="1.1" xmlns="http://www.w3.org/2000/svg" xmlns:xlink="http://www.w3.org/1999/xlink">
    <!-- Generator: Sketch 52.6 (67491) - http://www.bohemiancoding.com/sketch -->
    <title>Group 14</title>
    <desc>Created with Sketch.</desc>
    <defs>
        <path d="M160.679441,0.265173913 C72.3087391,0.265173913 0.670909938,71.904 0.670909938,160.273705 C0.670909938,248.644407 72.3087391,320.282236 160.679441,320.282236 C249.048149,320.282236 320.686975,248.644407 320.686975,160.273705 C320.686975,71.904 249.048149,0.265173913 160.679441,0.265173913 Z" id="path-1"></path>
        <path d="M160.679441,0.265173913 C72.3087391,0.265173913 0.670909938,71.904 0.670909938,160.273705 C0.670909938,248.644407 72.3087391,320.282236 160.679441,320.282236 C249.048149,320.282236 320.686975,248.644407 320.686975,160.273705 C320.686975,71.904 249.048149,0.265173913 160.679441,0.265173913 Z" id="path-3"></path>
    </defs>
    <g id="Homepage" stroke="none" stroke-width="1" fill="none" fill-rule="evenodd">
        <g id="RED-SEA-1.0-Home-3" transform="translate(-949.000000, -2418.000000)">
            <g id="Group-2" transform="translate(-679.000000, 799.000000)">
                <g id="Group-13" transform="translate(652.000000, 1369.000000)">
                    <g id="Group-11" transform="translate(578.000000, 178.000000)">
                        <g id="Group-14" transform="translate(395.000000, 0.000000)">
                            <path d="M74,187.901316 C74,190.524555 76.24,192.802632 78.9,192.802632 C81.56,192.802632 83.8,190.593588 83.8,187.901316 C83.8,185.278076 81.56,183 78.9,183 C76.24,183.069033 74,185.278076 74,187.901316 Z" id="DDDOOOOOTTTT" fill="#FFFFFF"></path>
                            <path d="M71,187.901316 C71,192.130189 74.6114286,195.802632 78.9,195.802632 C83.1885714,195.802632 86.8,192.241475 86.8,187.901316 C86.8,183.672443 83.1885714,180 78.9,180 C74.6114286,180.111286 71,183.672443 71,187.901316 Z" id="DDDOOOOOTTTT" stroke="#FFFFFF"></path>
                            <g id="noun_arabian-peninsula-map_885976_000000">
                                <g id="Group-10">
                                    <g id="Group-3"></g>
                                    <g id="Group-9"></g>
                                </g>
                            </g>
                            <mask id="mask-2" fill="white">
                                <use xlink:href="#path-1"></use>
                            </mask>
                            <g id="Clip-2"></g>
                            <path d="M53.8412702,110.332585 L53.8412702,110.333582 L53.843264,110.331588 C53.8422671,110.332585 53.8422671,110.332585 53.8412702,110.332585 Z" id="Stroke-1" stroke="#FFFFFF" mask="url(#mask-2)"></path>
                            <mask id="mask-4" fill="white">
                                <use xlink:href="#path-3"></use>
                            </mask>
                            <g id="Clip-8"></g>
                            <path d="M242.424683,201.264209 C241.138689,200.752802 240.630273,200.706945 239.662289,199.601389 C238.726205,198.539696 238.087195,197.19987 237.16108,196.090327 C235.994714,194.714612 234.887164,192.250289 232.863469,192.022001 C231.358158,191.853525 230.093099,191.268348 228.607726,190.970277 C225.427633,190.332265 222.306357,189.442038 220.084279,186.964755 C218.668689,185.397637 217.512292,183.590268 216.625056,181.678224 C216.29309,180.956473 216.169475,180.634476 215.91427,180.695286 C216.635025,179.394339 215.725857,177.521175 215.558379,176.048761 C215.446726,175.131619 214.900428,174.952178 214.430891,174.723889 C215.368969,174.481643 215.935205,170.880861 215.049962,170.26478 C216.515397,170.622665 215.338065,168.640839 214.760863,168.326817 C215.078872,168.987758 214.431888,170.018547 213.753003,169.259911 C213.434993,169.784277 213.174804,170.333566 212.966453,170.910768 C213.293434,170.926718 213.495804,171.059305 213.619419,171.261675 C213.49082,171.08024 213.293434,170.956625 212.986391,170.939678 C212.468006,173.337209 211.411298,173.726994 209.635829,175.186448 C208.041795,176.505339 207.352941,179.052404 205.659217,180.465004 C203.924621,181.915485 203.795025,183.027022 202.79813,184.978942 C202.439248,185.694712 201.681608,186.774348 200.783407,186.873041 C200.165332,186.942824 200.275987,186.005743 199.497413,186.299827 C199.746636,186.62282 199.986888,186.957777 200.215177,187.304696 C197.743875,188.790069 195.99931,187.62769 193.47617,187.717411 C192.540087,187.745324 191.622944,187.637659 190.685863,187.617721 C190.116636,187.605758 188.971205,186.910923 188.511636,187.013603 C188.082972,187.106314 187.725087,187.928752 187.40608,188.209876 C186.718223,188.827951 185.959587,188.973498 185.073348,189.023342 C184.384493,189.063218 183.209155,189.204777 182.700739,188.591687 C182.12254,187.957662 182.581111,186.974724 182.12254,186.293845 C181.873316,186.50419 181.634062,186.719519 181.404776,186.94083 C181.506459,186.28587 181.338981,186.092473 180.923276,186.326743 C178.674282,186.871047 179.285379,184.632022 179.959279,183.806594 C179.439897,183.474628 178.951419,183.677994 178.743068,184.237252 C178.897587,183.646094 178.384186,183.529457 177.792031,183.522479 C178.035273,183.423786 178.28649,183.319112 178.542692,183.242352 C179.959279,182.818671 179.768872,181.877603 180.338099,180.588619 C180.695984,179.843939 180.855487,179.112218 180.596295,178.30573 C180.436792,177.811271 179.868562,177.800305 179.768872,177.229084 C179.720025,176.657864 179.360146,175.914181 179.510677,175.341963 C179.67018,174.681022 180.028065,174.222451 180.028065,173.497709 C180.018096,172.460939 178.82282,171.99838 178.193779,171.336442 C175.701543,168.702647 175.004714,173.480761 175.004714,175.291122 C174.316857,173.47478 174.535177,175.622091 174.635863,176.008886 C173.52931,174.882395 174.137416,177.270954 174.137416,177.659743 C174.50527,179.338513 174.804338,181.231616 175.523099,182.803718 C175.580919,182.933314 175.642726,183.04397 175.704534,183.144656 C174.875118,182.517609 174.256046,181.344265 173.797475,180.584631 C173.030863,179.316581 172.841453,178.121305 172.203441,176.817367 C171.575397,175.527386 170.159807,174.871429 169.362292,173.70606 C169.621484,173.952293 169.87968,174.191547 170.149838,174.423824 C170.070087,174.118774 168.853875,171.491957 168.71431,171.461053 C167.787198,171.274634 168.116174,171.072265 167.996546,170.053439 C169.301481,171.225786 169.402167,169.332684 169.162913,168.434482 C168.747208,166.912224 167.582835,166.873345 167.569875,164.996193 C166.016714,163.920544 163.710897,162.486013 164.058813,161.173103 C163.370956,163.11605 161.945397,159.665799 161.267509,159.45346 C163.022043,158.102668 158.406422,157.671013 158.406422,157.662041 C158.536018,156.697047 157.439434,156.821659 157.898006,155.728066 C158.096388,155.917476 158.266857,156.132805 158.406422,156.373057 C158.825118,154.845814 156.123534,153.113212 155.585211,151.752451 C155.23231,150.880168 155.017978,150.219227 154.41386,149.846389 C154.414857,149.847386 154.416851,149.847386 154.418844,149.848383 C153.779835,147.914407 152.3144,146.206727 151.876764,144.29269 C151.517882,142.717597 149.892944,142.151361 148.437478,142.343761 C148.935925,141.691793 150.291702,139.434824 151.238751,140.764681 C151.333456,140.642063 151.346416,140.426734 151.316509,140.175516 C151.494953,140.28019 151.74318,140.334022 152.105052,140.298134 C154.069931,140.101746 152.105052,137.842783 151.526854,137.175861 C151.600624,137.338355 151.140059,138.241541 151.00149,139.037063 C150.723357,138.343224 150.339552,137.678296 150.121233,137.499852 C149.61481,137.082153 149.097422,136.812991 148.583025,136.628566 C149.326708,136.796044 149.951761,136.83592 149.64372,136.103202 C149.733441,136.809004 153.591422,137.359289 154.239403,137.309445 C152.98232,137.007386 153.181698,135.032538 152.295459,134.395522 C150.550894,133.133454 149.733441,132.673886 149.96173,131.107765 C150.062416,130.401963 150.062416,129.238588 149.612816,128.661386 C149.254931,128.212783 148.507261,128.302504 148.058658,128.272597 C146.772664,128.179886 146.721823,125.721544 146.902261,124.855243 C147.28108,123.041892 148.197226,121.680134 146.701885,120.361243 C145.714959,119.489957 143.662354,115.85528 142.545832,115.76556 C140.182195,115.582131 139.096577,113.398932 137.40086,112.436929 C136.474745,111.915553 135.825767,111.179845 134.669369,111.44801 C133.862882,111.635426 134.112105,110.499963 133.134152,110.262702 C135.637354,109.559892 131.250021,105.797612 130.403658,105.231376 C129.555301,104.664143 128.897351,103.853668 128.14968,103.174783 C127.272413,102.383249 128.179587,102.15197 128.508562,101.13414 C128.857475,100.066466 128.388934,99.7883329 127.77086,99.1383578 C127.152785,98.5402211 127.651233,97.9919292 127.77086,97.2701776 C128.229431,97.5552894 128.738844,97.7018329 129.27617,97.7018329 C129.127633,96.9152832 128.708938,96.2792646 128.958161,95.425923 C129.18645,94.6712739 130.023841,94.8068516 130.023841,94.0053484 C129.964028,92.2258919 132.108348,94.1558795 131.937879,92.4003484 C131.809279,91.0704913 129.576236,89.9818826 130.363782,88.5184416 C130.832323,87.6521404 132.138254,87.9123298 132.397447,86.7918205 C129.416733,86.0022801 129.385829,87.0998609 128.010115,86.5764913 C127.282382,86.3023453 126.614462,84.8458826 125.00049,85.2087522 C125.97645,83.3635006 123.573934,82.3107801 122.478348,81.2421093 C121.958966,80.735687 122.367692,79.8594168 122.059652,79.243336 C121.810428,78.7389075 121.421639,78.809687 121.121574,78.4069416 C120.484559,77.5585845 120.533407,75.1032335 119.098875,75.0533888 C117.961419,75.0105224 117.552692,76.5776404 116.515922,76.6673609 C115.100332,76.7949634 116.805021,73.5211621 114.302816,73.984718 C113.315891,74.1681466 112.976947,74.9058484 111.841484,74.6705814 C111.143658,74.5280255 110.475739,74.2887708 109.816792,74.0365565 C108.989369,73.7175503 105.202167,73.1004727 104.83232,73.767395 C104.463469,74.4452832 104.184338,75.2457894 103.336978,75.5029882 C103.06682,75.5817429 102.752798,75.5089696 102.5594,75.4740783 C102.140705,72.7605317 100.128972,74.8021714 98.7323227,75.3604323 C95.811422,76.524805 92.7110804,74.9307708 89.8699314,76.0672304 C87.0576922,77.1907304 84.8356146,78.9642056 81.735273,79.2313733 C80.5190618,79.3360472 78.3258941,79.555364 77.1994034,79.0290037 C76.2134748,78.5674416 75.5246208,77.7390224 74.3582543,77.572541 C72.7831612,77.346246 71.7563599,78.1896186 70.3507388,78.7967273 C68.9750245,79.3888826 68.0279748,79.5593516 66.5924469,79.7836528 C65.4161115,79.9670814 65.1868258,78.9462615 64.0403972,78.3451342 C63.6217016,78.1168453 63.0833786,78.1218298 62.5540276,78.2554137 C61.8571984,78.431864 61.7585059,79.8584199 61.8571984,80.3638453 C62.0167016,81.7515224 62.3845556,82.0505907 62.9537823,83.2039975 C62.2459873,83.2438733 61.4983165,83.4432522 60.8004904,83.2737801 C60.6509562,84.0364043 61.1992481,85.1339851 60.3907668,85.6224634 C59.7437823,86.0172335 59.3649624,86.8626 59.3649624,86.7529416 C59.0648972,86.6063981 57.5506146,85.304454 57.5506146,86.1328733 C57.5904904,87.2364354 56.8727264,89.2431839 57.7898693,89.9978329 C58.9353009,90.9389012 58.1088755,93.273628 58.2275059,94.5526435 C58.3072575,95.4079789 58.414922,96.3819447 59.0958009,96.8435068 L59.0748661,96.8395193 C59.5942481,98.0377863 57.9693102,98.891128 57.3711736,99.6627242 C56.6035649,100.654634 57.3811425,102.044305 56.7132233,103.0731 C55.3674158,105.149631 55.4262326,108.484243 53.8431643,110.331488 C53.8431643,110.331488 53.8451581,110.331488 53.8451581,110.330491 C53.8441612,110.331488 53.8431643,110.332485 53.8411705,110.333482 C53.3726301,110.839904 54.1512047,111.830817 53.6427885,112.288392 C52.9539345,112.899488 52.9240276,114.294143 52.7655214,115.142501 C52.2271984,117.915861 51.7905587,120.733084 50.3929127,123.253234 L50.3929127,123.257221 C50.0091084,123.948069 49.2444904,124.97188 48.6094686,125.490265 C47.6105804,126.352578 46.3644624,126.841057 45.1183444,127.214892 C43.7137202,127.639569 42.2373196,127.153084 40.9224158,127.988482 C41.2803009,126.480181 39.2466363,127.751221 38.5597761,127.811035 C36.4463599,127.996457 35.8382543,126.327656 34.0338755,125.906966 C35.7275991,126.704482 33.3858941,127.695395 33.3858941,127.988482 C32.527568,127.19296 33.1456425,126.866976 31.8297419,126.552954 C30.6244966,126.263855 31.6503009,124.85624 31.3721674,124.113553 C32.3082512,124.176358 33.0369811,125.26696 33.7447761,125.763414 C33.04695,125.318799 32.6681301,124.173367 31.8805835,123.898224 C31.0322264,123.60115 30.2745866,124.393681 29.4680991,124.507327 C27.7933165,124.745584 26.6568568,122.744817 24.9122916,123.322019 C27.2749314,123.494482 22.3303351,124.989824 22.1100214,125.117426 C22.7390618,124.456485 23.5266084,123.986948 24.3430649,123.610122 C23.1178817,123.602147 21.9704562,124.913063 20.7552419,124.183336 C20.5758009,124.993811 19.8779748,125.67469 19.1701798,126.049522 C19.7085028,126.010643 19.6177854,126.129274 20.037478,126.336628 C19.3087481,126.451271 18.8810804,125.992699 18.3118537,125.547088 C17.6449314,126.231954 16.9670432,126.905855 16.2383134,127.525923 C14.8336891,128.721199 12.9684997,130.039094 11.0046177,129.712112 C8.98092205,129.374165 7.54639099,128.02138 5.39210217,127.807047 C4.71521087,127.741252 4.03732267,127.738261 3.37937236,127.599693 C2.77126677,127.474084 2.52204317,126.631709 1.98372019,126.691522 C1.17623571,126.780246 0.568130124,126.880932 -0.240351242,126.631709 C-1.1574941,126.350584 -1.29606242,125.375622 -2.19326739,125.136367 C-4.31764938,124.571128 -6.41013075,124.083647 -8.60429534,123.86433 C-10.6070562,123.663954 -12.2619009,122.995038 -14.2756276,123.594171 C-15.3732084,123.92215 -17.4756587,124.575116 -17.576345,122.750799 C-21.1851028,125.722541 -18.9022146,127.470097 -18.5124289,129.974296 C-18.1545438,132.306032 -21.0844165,134.688609 -19.6588575,136.962525 L-19.6100096,136.95156 C-18.6420252,138.890519 -18.0937332,142.072606 -17.7946649,144.223904 C-17.4557208,146.725112 -17.5055655,149.373861 -17.3570283,151.897998 L-15.9304724,205.915718 C-15.9304724,205.915718 -15.6074786,205.915718 -15.1429258,205.916715 L-15.1429258,205.931668 L-16.1298512,205.931668 C-15.9304724,211.670789 -15.7310935,217.505612 -15.631404,223.248721 L-23.0881742,223.248721 L-22.3704102,260.356122 C-23.6065593,259.974311 -24.8915562,259.50278 -26.1287022,260.14478 C-27.1345686,260.678119 -28.112522,260.085963 -29.1492922,260.59737 C-31.5617767,261.79165 -29.019696,263.599019 -30.5250065,265.522029 C-31.7422146,267.061234 -31.9495686,268.736016 -33.7050997,269.665122 C-34.8016835,270.249302 -33.7050997,272.985777 -32.9973047,273.634755 C-35.5094786,275.642501 -37.1344165,276.325373 -35.3300376,279.717805 C-34.6521494,281.010777 -35.4995096,281.555081 -36.5562177,282.298765 C-37.6817115,283.093289 -37.8820873,284.115106 -38.3805345,285.335305 C-37.403578,287.973088 -35.5593233,285.49082 -33.9144475,286.442855 C-32.937491,287.010088 -34.4128947,287.939193 -33.9144475,288.702814 C-33.3651587,289.633914 -33.0770562,290.870063 -33.3761245,291.935743 C-33.1159351,291.804153 -32.8577394,291.685522 -32.588578,291.576861 C-31.8110003,292.832948 -33.2764351,294.223616 -32.588578,295.494656 C-31.9595376,296.761709 -30.3355966,296.931181 -29.7873047,297.851314 C-28.9798202,299.203103 -30.6745407,300.44324 -30.076404,301.758143 C-29.4573326,303.118904 -28.3717146,304.141718 -27.3349444,305.179485 C-25.4797239,307.037696 -23.8557829,309.786134 -23.845814,312.444852 C-23.845814,312.939311 -23.7251898,313.424799 -23.7251898,313.88038 C-23.7251898,313.890348 -19.2800376,313.88038 -19.2800376,313.88038 C-18.7716214,314.067796 -18.6121183,313.644116 -18.2233295,313.275265 C-17.5354724,313.216448 -17.3859382,314.17247 -16.9871804,312.857566 C-16.4687953,312.53856 -16.1687301,312.477749 -15.810845,311.983289 L-15.8507208,311.97332 C-15.5426804,311.661293 -15.4928357,311.059168 -15.2226773,310.788013 C-14.7950096,310.362339 -14.1669661,309.983519 -13.7373047,309.558842 C-13.0693854,308.894911 -13.7373047,307.475333 -13.0594165,306.806417 C-12.5809071,306.326911 -11.0855655,307.038693 -10.5173357,306.467473 C-10.1295438,306.074696 -7.83568975,305.375873 -7.46683882,305.746718 C-6.96839161,306.249153 -7.03817422,307.916957 -6.78895062,308.160199 C-6.5796028,308.371541 -5.82295994,308.240948 -5.64252205,308.414407 C-5.32451273,308.742386 -5.29360901,309.368435 -5.09423012,309.771181 C-4.96463385,310.037352 -4.64562764,310.350376 -4.50606242,310.489942 C-3.99764627,311.000352 -4.27677671,312.374072 -3.82917112,312.819684 C-3.5291059,313.113768 -2.59202516,313.555392 -2.26305,313.668041 C-1.38578292,313.959134 2.1232854,312.80473 2.61176366,312.312265 C2.72142205,312.2046 3.27968292,312.382047 3.37937236,312.400988 C4.76505559,312.681116 6.85853385,312.704044 7.90527298,312.528591 C8.43362702,313.269283 8.7217295,314.362876 9.26104938,314.901199 C9.84921708,315.487373 13.8168568,315.124504 14.6044034,314.731727 C14.8625991,314.59914 14.7240307,313.976081 14.853627,313.714895 C15.212509,313.0071 16.2991239,312.082979 17.0966394,311.682227 C18.0227543,311.220665 20.1770432,311.611448 20.6954283,311.089075 C21.0543102,310.730193 20.3564842,308.762324 20.8649003,308.250917 C21.5527575,307.56605 22.8088444,307.012774 23.4967016,306.599063 C25.4506146,307.060625 26.268068,308.530047 27.4743102,309.733299 C28.1521984,310.407199 29.110214,310.728199 29.6774469,311.301414 C29.8469189,311.464904 30.0562668,311.053187 30.1071084,311.004339 C30.2456767,310.860786 31.5815152,310.964463 31.8805835,310.964463 C32.2494345,310.964463 33.2363599,311.044215 33.4955525,310.794991 C34.8004873,309.482081 35.8581922,307.495271 37.2638134,306.09264 C37.9127916,305.439675 37.9915463,303.837665 38.6195898,303.212612 C39.7759873,302.05123 41.4607388,300.987544 41.959186,299.485224 C40.4528786,298.304901 42.3679127,294.889541 41.3710183,293.89464 C41.241422,293.76305 39.2775401,292.050386 39.3373537,291.988578 C40.005273,291.324647 43.6539065,292.379361 44.1224469,291.437296 C44.4314842,290.823209 44.0217606,290.000771 44.1224469,289.531234 C44.5112357,289.32687 48.1000556,289.501327 48.1000556,289.531234 C48.1000556,290.285883 47.4311394,292.955566 47.0433475,293.725168 C46.6645276,294.493774 47.8707699,299.141296 48.1000556,300.078376 C48.2196829,300.526979 47.8109562,302.199768 47.9804283,302.365252 C48.3293413,302.718153 49.2165773,302.875662 49.6741519,303.212612 C51.4695587,304.562407 52.476422,307.15832 53.7833506,308.465249 C54.2010494,308.886935 53.7833506,311.22864 53.014745,310.625519 C53.1602916,314.771603 52.7844624,312.214569 55.1142047,312.861553 C54.9277854,314.39378 55.1321488,315.990805 55.3175711,317.504091 C55.4671053,318.771143 55.9755214,320.775898 55.1969469,321.929305 C54.0804252,323.6001 52.7754904,323.1186 51.259214,322.862398 C49.5555214,322.573299 48.1299624,322.763706 48.1299624,324.785407 C48.1199935,325.966727 47.0124438,326.581811 46.8738755,327.74419 L46.8040929,327.74419 C47.3822916,328.882643 48.8975711,328.890619 49.984186,329.022209 C51.1605214,329.164765 52.2561084,329.676171 53.1732512,330.423842 C54.4193693,331.445659 55.0583786,332.999817 55.9944624,334.274845 C56.4131581,334.846066 56.4929096,335.69542 57.2814531,335.915734 C57.5904904,335.951622 57.6891829,336.097168 57.9493724,336.261656 C58.3580991,336.630507 58.378037,337.185777 58.9353009,337.464907 C59.4337481,337.718119 59.793627,337.901547 60.0926953,338.420929 C60.7406767,339.544429 60.9689655,340.895221 61.4385028,342.094485 C62.0665463,343.690513 62.3945245,345.625485 63.3226332,347.065998 C63.7313599,347.690053 64.4092481,349.09069 64.8977264,349.563218 C65.6952419,348.539407 68.0977575,349.248199 68.4367016,350.417557 C68.8553972,351.714516 67.8485339,353.27665 68.4367016,354.458966 C68.8553972,355.30533 70.2709873,357.145597 71.208068,357.477563 C73.2317637,358.192336 75.6243102,357.062855 77.279155,358.052771 C86.9390618,363.865662 83.8486891,364.33819 87.5172606,364.681122 C88.4144655,364.764861 89.4213289,364.347162 90.3285028,364.537569 C91.185832,364.721994 91.8726922,365.496581 92.8406767,365.406861 C94.0867947,365.292218 96.2699935,365.433777 97.2270121,366.357898 C97.8351177,365.366985 98.4631612,364.387038 99.3404283,363.091075 C100.147913,361.893805 102.270301,360.770305 103.537354,360.186125 C104.343841,359.81528 105.600925,359.134401 106.537009,359.24406 C107.503997,359.357706 107.973534,360.355597 108.551733,360.998594 C109.917478,362.513873 112.090708,361.236852 113.635894,361.592743 C115.490118,362.016423 115.389431,360.697532 116.795052,359.926932 C118.101981,359.213156 119.587354,359.263998 120.991978,358.98387 C122.518223,358.680814 122.876108,357.483544 123.933813,356.520544 C127.890487,352.878889 132.138254,353.052348 135.178782,353.462072 C137.023037,353.711296 138.059807,353.565749 139.365739,352.042494 L160.679341,326.73932 C158.345611,326.73932 155.384835,327.11814 153.083006,326.573836 C150.59077,325.985668 148.636857,324.931951 146.234341,324.044715 C141.160149,322.172547 136.583407,320.261501 131.490273,318.427215 C130.224217,317.972631 128.688003,316.239032 127.681139,315.424569 C127.034155,314.895218 126.555646,315.097588 125.997385,314.4516 C125.438127,313.803619 124.561857,311.452942 124.073379,310.74714 C122.597975,308.625749 121.551236,308.017643 120.413779,305.635066 C119.495639,303.713053 121.320953,302.303445 121.530301,300.66455 C121.830366,300.608724 122.104512,300.407352 122.338782,299.925852 C122.887074,298.784407 124.959618,296.752737 122.887074,295.948243 C121.739649,295.503628 119.368037,297.185389 118.58049,296.164569 C119.785736,295.970175 119.926298,294.718075 120.983006,294.300376 C122.019776,293.893643 124.173068,292.892761 124.859928,292.015494 C126.203742,290.322768 123.472251,287.633147 122.770438,286.159737 C123.047574,285.695184 122.677726,285.354246 121.958966,284.683336 C121.172416,286.629274 119.098875,282.74637 118.570521,282.197081 C118.032198,281.628852 117.095118,281.858137 116.835925,281.018752 C116.526888,280.055752 116.536857,278.694991 115.569869,278.079907 C116.267695,279.820485 114.862074,277.889501 114.572975,277.604389 C113.994776,277.036159 113.38667,276.503817 112.698813,276.070168 C111.242351,275.152029 110.425894,273.736439 109.487816,272.344774 C108.521826,270.901271 107.832972,269.506616 106.019621,269.256395 C104.444528,269.040069 104.3249,268.234578 103.346947,267.146966 C102.171608,265.831066 101.443875,267.399181 100.287478,266.864845 C99.4700245,266.487022 98.8818568,265.03355 98.7811705,264.181206 C98.7123848,263.453473 98.134186,262.225299 97.1572295,262.386796 C96.1603351,262.551283 97.7254593,265.128255 96.7684407,265.80714 C96.000832,265.213988 95.8203941,263.727619 95.6020742,262.86032 C95.3528506,261.920249 94.2363289,261.845482 94.0758289,260.96024 C93.8475401,259.661286 93.2982512,258.723209 92.7310183,257.540892 C92.2026643,256.446302 92.2216053,255.30087 91.9624127,254.141482 C90.8668258,249.279628 89.230922,244.994976 86.9988755,240.541848 C86.7018009,240.817988 86.4735121,241.130016 86.2711425,241.45301 C86.5642295,240.973504 86.8194345,240.571755 86.9300898,240.453125 C86.7695898,239.109311 84.4867016,239.258845 84.4268879,238.030671 C83.4898071,238.868063 80.8779438,234.502662 79.4723227,234.264404 C77.0498693,233.85169 76.3321053,229.160305 76.2324158,227.127637 C76.0828817,224.233653 75.2056146,221.623783 75.5844345,218.776653 C75.7539065,217.517575 75.3252419,216.079057 74.8267947,214.937612 C74.1389376,213.356538 75.5345898,212.641765 75.8835028,214.200907 C75.7838134,212.152289 73.4311425,210.862308 72.8728817,208.96123 C72.1850245,206.664386 73.17195,205.781137 71.0485649,204.302743 C69.4535339,203.187218 68.4367016,201.075796 66.7718879,200.20451 C64.9086922,199.230544 63.4023848,198.46792 62.8939686,196.256808 C62.872037,196.27874 62.8461177,196.30765 62.8221922,196.333569 C62.862068,196.021541 62.8022543,195.729451 62.5939034,195.488202 C61.5282233,194.260029 61.2889686,191.080932 61.7874158,188.99842 C62.4742761,189.339358 63.2428817,189.468954 64.0094935,189.429078 C63.2030059,188.132119 61.6767606,187.737348 60.8004904,186.46232 C59.8624127,185.092588 58.7757978,184.000988 58.028127,182.476737 C56.1250556,178.579876 54.0903941,174.809622 52.0776643,170.971578 C51.4585929,169.803218 50.8006425,168.660777 50.192537,167.490423 C49.9333444,166.979016 48.9972606,166.098758 48.9972606,165.505606 C49.0261705,165.061988 49.6043693,164.482793 49.3162668,164.030202 C48.9264811,163.43705 48.4778786,162.871811 48.209714,162.211867 C47.661422,160.86905 47.1021643,159.741563 46.056422,158.67688 C45.2678786,157.883352 46.2956767,156.657171 45.0595276,155.694171 C46.5339345,156.831628 45.2678786,154.746125 44.9588413,154.382258 C44.3706736,153.687423 43.6439376,153.138134 42.9949593,152.500122 C41.5394935,151.057616 40.364155,148.988063 39.1977885,147.29733 C37.8509842,145.345411 38.0214531,143.026634 36.4164531,141.137519 C35.4783755,140.034954 36.4353941,137.927519 37.333596,136.961529 C37.8719189,139.240429 38.8289376,141.466494 40.1637792,143.377541 C41.1307668,144.76123 43.0248661,146.122988 42.6470432,148.08687 C42.2582543,150.035799 44.8990276,150.883159 45.7972295,152.181116 C46.5050245,153.204926 47.2317606,154.263628 48.2685307,154.990364 C49.0869811,155.562581 50.0739065,155.871619 50.8215773,156.556485 C50.4317916,155.36719 51.9779748,154.186867 51.9779748,152.966668 C51.9570401,151.540112 51.9380991,150.698734 52.505332,149.348939 C53.4832854,147.039134 53.1343724,143.435361 54.6685929,141.486432 L54.1531984,140.121684 L54.1721394,140.087789 L54.6795587,141.418643 C54.9178165,141.070727 55.1042357,140.681939 55.2627419,140.273212 C55.1540804,141.005929 55.0842978,141.741637 55.1281612,142.489308 L55.1171953,142.489308 C55.1451084,142.496286 55.177009,142.505258 55.2039252,142.512237 C54.9018661,143.777296 55.2517761,142.429494 54.8889065,144.696432 C54.5898382,146.512774 55.0085339,148.384942 54.4801798,150.184336 C54.2309562,151.042662 52.7854593,153.189973 53.6826643,154.008423 C53.732509,152.753333 56.4031891,153.197948 57.0920432,153.389352 C58.5873848,153.810041 59.3450245,155.736041 60.0229127,156.984153 C62.2459873,161.081389 65.4151146,164.552575 67.4298382,168.729563 C68.0977575,170.106274 70.0616394,170.990519 69.9509842,172.520752 C69.8821984,173.408985 71.4363568,174.635165 71.9956146,175.308069 C72.813068,176.309948 76.3321053,180.45005 73.8099624,181.369187 C74.5376953,182.338168 75.3541519,183.134687 75.7738444,184.297066 C75.9632543,184.839376 76.2822606,186.111414 76.9501798,186.292848 C78.525273,186.72251 79.7913289,186.913914 81.0763258,188.135109 C82.8418258,189.809892 84.7159873,191.395951 85.6829748,193.723699 C86.0318879,194.564081 86.4705214,195.538047 86.6489655,196.427277 C86.8593102,197.423175 87.6458599,197.43414 87.9957699,198.343308 C86.360863,197.106162 87.7664842,198.915525 87.9957699,199.280389 C88.4344034,199.97323 88.882009,200.668066 89.0514811,201.489507 C89.4113599,203.291892 88.6636891,205.091286 88.7932854,206.90065 C88.891978,208.279355 89.8499935,209.407839 89.9496829,210.771591 C90.0094966,212.030668 89.7991519,212.712544 90.5179127,213.906824 C91.7440929,215.956439 93.0500245,218.6331 94.9939686,220.074609 C96.180273,220.941907 97.3964842,220.428507 98.4422264,221.654687 C99.3005525,222.664541 100.427043,223.580687 101.404,224.486864 C101.792789,224.84774 102.380956,224.904563 102.729869,225.312293 C103.087754,225.716035 102.838531,226.344078 103.087754,226.804643 C103.357913,227.28415 103.916174,227.360911 104.184338,227.906212 C104.474434,228.499364 104.604031,229.151333 104.83232,229.768411 C105.072571,230.427358 105.67968,232.061268 106.038562,232.574668 C106.518068,233.297417 106.178127,233.911504 106.617757,234.615311 C107.3744,235.814575 108.212789,236.235265 108.670363,237.710668 C109.029245,238.854106 110.096919,240.203901 110.863531,241.138988 C112.878254,243.608296 115.3994,244.546373 115.589807,248.19401 C115.469183,246.157355 117.483907,250.378206 117.891636,250.642383 C118.70909,251.160768 119.268348,253.306084 119.167661,254.211265 L119.217506,254.207277 C119.228472,254.38273 119.118813,254.430581 119.118813,254.610022 C119.166664,254.594072 119.203549,254.56915 119.249407,254.551206 C118.913453,254.91906 119.240434,255.320808 119.397944,256.149227 C119.705984,257.812047 119.078938,258.582647 118.788841,260.097926 C118.510708,261.500557 119.687043,262.719758 119.557447,264.114414 C119.287289,263.875159 117.862726,263.838274 118.101981,264.395538 C118.101981,264.278901 119.536512,265.119283 119.536512,265.115296 C120.335025,265.968637 120.633096,266.851886 120.912226,267.968407 C121.441577,270.157588 121.490425,272.597985 122.179279,274.727352 C122.457413,275.601628 123.155239,276.255591 123.49518,277.107935 C123.893938,278.135734 123.49518,279.250261 123.49518,280.301985 C123.49518,282.382504 125.967478,284.13305 125.28959,286.246466 C126.206733,286.316249 126.824807,285.801852 127.751919,286.176684 C128.738844,286.571454 129.416733,286.897439 130.51232,286.681112 C132.755332,286.235501 133.763192,284.664395 136.105894,285.893566 C135.98527,285.255553 136.663158,284.607572 136.893441,285.535681 C137.28223,285.10901 137.501546,284.613553 137.819556,284.139032 C138.309031,283.38837 139.116515,283.40432 139.774466,282.904876 C141.249869,281.790348 141.419341,280.666848 143.453006,280.200302 C145.347105,279.764659 147.350863,279.681917 149.283841,279.859364 C150.421298,279.963041 152.335335,278.657109 153.471795,278.334116 C155.175487,277.852616 156.022848,276.380202 157.518189,275.550786 C157.977757,275.296578 158.624742,274.72137 159.123189,274.572833 C159.671481,274.592771 160.190863,274.72137 160.68931,274.962619 C161.256543,274.992525 161.805832,274.922743 162.344155,274.760249 C165.962882,274.178063 166.769369,270.435721 170.020242,268.839693 C171.535521,268.098004 172.870363,267.910588 174.47636,267.628466 C176.470149,267.281547 178.114028,265.947702 180.078907,265.481156 C181.433686,265.156168 182.8094,264.899966 184.13527,264.422454 C185.452167,263.946935 185.919711,262.896209 187.036233,262.326982 C187.964341,261.854454 189.95813,261.913271 190.236264,260.657184 C190.575208,259.201718 189.559372,257.877842 190.08673,256.393466 C191.153407,253.393811 194.812009,253.512442 197.055021,251.871553 C196.890534,251.861584 196.745984,251.828687 196.613397,251.780836 C196.691155,251.799777 196.767916,251.824699 196.856639,251.826693 C200.035736,251.916414 202.787164,248.860932 205.937351,248.860932 C207.023966,248.860932 207.752695,248.672519 208.619993,249.363367 C209.12841,249.763122 209.626857,249.440128 210.125304,249.199876 C211.162074,248.698439 212.438099,247.77033 212.537789,246.491314 C212.61754,244.883324 211.939652,244.615159 212.986391,243.207544 C214.073006,241.753075 214.810708,241.45301 216.653966,241.315439 C218.180211,241.200796 220.104217,241.271575 221.071205,239.974616 C221.838813,238.932861 222.068099,237.577084 222.34723,236.343926 C223.064993,233.205702 226.265025,232.350367 229.175956,232.260647 C230.990304,232.205817 230.731111,231.07833 230.332354,229.586976 C229.862816,227.762659 229.215832,226.303206 229.764124,224.420072 C230.172851,222.97956 230.08313,219.475476 231.697102,218.500513 C233.043907,217.662125 232.844528,219.675852 233.901236,219.991867 C235.227105,220.391622 235.546111,217.959199 235.764431,217.11782 C236.732416,213.552926 240.301298,211.816336 241.427789,208.488702 C242.025925,206.726193 245.425335,202.46447 242.424683,201.264209 Z" id="Stroke-7" stroke="#FFFFFF" stroke-linecap="round" stroke-linejoin="round" mask="url(#mask-4)"></path>
                            <text id="Paragraph" mask="url(#mask-4)" font-family="OpenSans-Regular, Open Sans" font-size="14" font-weight="normal" line-spacing="20" fill="#FFFFFF">
                                <tspan x="111.408691" y="185">Saudi </tspan>
                                <tspan x="108.366699" y="205">Arabia</tspan>
                            </text>
                        </g>
                    </g>
                </g>
            </g>
        </g>
    </g>
</svg>