<?xml version="1.0" encoding="UTF-8"?>
<svg width="40px" height="40px" viewBox="0 0 40 40" version="1.1" xmlns="http://www.w3.org/2000/svg" xmlns:xlink="http://www.w3.org/1999/xlink">
    <!-- Generator: Sketch 52.6 (67491) - http://www.bohemiancoding.com/sketch -->
    <title>Group 3 Copy 2</title>
    <desc>Created with Sketch.</desc>
    <defs>
        <polygon id="path-1" points="0 3.125e-05 39.9999922 3.125e-05 39.9999922 40 0 40"></polygon>
    </defs>
    <g id="Homepage" stroke="none" stroke-width="1" fill="none" fill-rule="evenodd">
        <g id="RED-SEA-1.2-Partnerships-3-Copy" transform="translate(-775.000000, -3661.000000)">
            <g id="Footer" transform="translate(0.000000, 3587.000000)">
                <g id="Group-3-Copy-2" transform="translate(775.000000, 74.000000)">
                    <mask id="mask-2" fill="white">
                        <use xlink:href="#path-1"></use>
                    </mask>
                    <g id="Clip-2-Copy-2"></g>
                    <path d="M31.7517109,30.2344062 L26.8813984,30.2344062 L26.8813984,22.3947187 C26.8813984,20.4244844 26.1761641,19.0808125 24.4137422,19.0808125 C23.0682734,19.0808125 22.2668672,19.9871406 21.9146797,20.8621406 C21.7858516,21.1751875 21.7544453,21.6128438 21.7544453,22.0508125 L21.7544453,30.2344062 L16.8838203,30.2344062 C16.8838203,30.2344062 16.9476484,16.9549531 16.8838203,15.5801094 L21.7544453,15.5801094 L21.7544453,17.6550313 C22.4017109,16.6565156 23.5599141,15.2362031 26.1441328,15.2362031 C29.3487422,15.2362031 31.7517109,17.3306563 31.7517109,21.8316719 L31.7517109,30.2344062 Z M11.7529609,13.5790937 L11.7211641,13.5790937 C10.0867109,13.5790937 9.02952344,12.4539375 9.02952344,11.0476875 C9.02952344,9.60964062 10.1190547,8.51565625 11.7853047,8.51565625 C13.4515547,8.51565625 14.4769453,9.60964062 14.5086641,11.0476875 C14.5086641,12.4539375 13.4515547,13.5790937 11.7529609,13.5790937 Z M9.31733594,30.2344062 L14.1882734,30.2344062 L14.1882734,15.5801094 L9.31733594,15.5801094 L9.31733594,30.2344062 Z M19.9999922,3.125e-05 C8.95600781,3.125e-05 -7.8125e-06,8.95596875 -7.8125e-06,20.0000312 C-7.8125e-06,31.0440156 8.95600781,40.0000312 19.9999922,40.0000312 C31.0439766,40.0000312 39.9999922,31.0440156 39.9999922,20.0000312 C39.9999922,8.95596875 31.0439766,3.125e-05 19.9999922,3.125e-05 Z" id="Fill-1-Copy-2" fill="#FFFFFF" mask="url(#mask-2)"></path>
                </g>
            </g>
        </g>
    </g>
</svg>