<?xml version="1.0" encoding="UTF-8"?>
<svg width="40px" height="40px" viewBox="0 0 40 40" version="1.1" xmlns="http://www.w3.org/2000/svg" xmlns:xlink="http://www.w3.org/1999/xlink">
    <!-- Generator: Sketch 52.6 (67491) - http://www.bohemiancoding.com/sketch -->
    <title>Group 3 Copy</title>
    <desc>Created with Sketch.</desc>
    <defs>
        <polygon id="path-1" points="0 0.00016 39.72144 0.00016 39.72144 39.7216 0 39.7216"></polygon>
    </defs>
    <g id="Homepage" stroke="none" stroke-width="1" fill="none" fill-rule="evenodd">
        <g id="RED-SEA-1.2-Partnerships-3-Copy" transform="translate(-625.000000, -3661.000000)">
            <g id="Footer" transform="translate(0.000000, 3587.000000)">
                <g id="Group-3-Copy" transform="translate(625.000000, 74.000000)">
                    <mask id="mask-2" fill="white">
                        <use xlink:href="#path-1"></use>
                    </mask>
                    <g id="Clip-2-Copy"></g>
                    <path d="M28.72064,15.31536 C28.72944,15.51216 28.73424,15.71056 28.73424,15.90896 C28.73424,21.94976 24.13744,28.91296 15.72704,28.91296 C13.14544,28.91296 10.74224,28.15856 8.71984,26.86096 C9.07744,26.90336 9.44144,26.92496 9.81024,26.92496 C11.95264,26.92496 13.92304,26.19376 15.48784,24.96816 C13.48784,24.93136 11.79904,23.60976 11.21744,21.79296 C11.49584,21.84576 11.78304,21.87536 12.07664,21.87536 C12.49344,21.87536 12.89824,21.82096 13.28144,21.71616 C11.19024,21.29696 9.61504,19.44976 9.61504,17.23376 C9.61504,17.21456 9.61504,17.19456 9.61584,17.17616 C10.23184,17.51776 10.93664,17.72416 11.68544,17.74736 C10.45984,16.92896 9.65264,15.52896 9.65264,13.94336 C9.65264,13.10496 9.87744,12.31936 10.27104,11.64416 C12.52464,14.41056 15.89424,16.22976 19.69264,16.42176 C19.61424,16.08656 19.57504,15.73856 19.57504,15.37936 C19.57504,12.85536 21.62144,10.80816 24.14544,10.80816 C25.46064,10.80816 26.64704,11.36336 27.48224,12.25136 C28.52464,12.04656 29.50064,11.66736 30.38624,11.14176 C30.04224,12.20976 29.31984,13.10496 28.37344,13.67136 C29.29904,13.56096 30.18224,13.31616 30.99904,12.95216 C30.38944,13.86736 29.61424,14.67296 28.72064,15.31536 M19.86064,0.00016 C8.90944,0.00016 -0.00016,8.90976 -0.00016,19.86096 C-0.00016,30.81136 8.90944,39.72176 19.86064,39.72176 C30.81104,39.72176 39.72144,30.81136 39.72144,19.86096 C39.72144,8.90976 30.81264,0.00016 19.86064,0.00016" id="Fill-1-Copy" fill="#FFFFFF" mask="url(#mask-2)"></path>
                </g>
            </g>
        </g>
    </g>
</svg>