<?xml version="1.0" encoding="UTF-8"?>
<svg width="40px" height="40px" viewBox="0 0 40 40" version="1.1" xmlns="http://www.w3.org/2000/svg" xmlns:xlink="http://www.w3.org/1999/xlink">
    <!-- Generator: Sketch 52.6 (67491) - http://www.bohemiancoding.com/sketch -->
    <title>Group 5</title>
    <desc>Created with Sketch.</desc>
    <defs>
        <polygon id="path-1" points="0 0 39.9999922 0 39.9999922 40 0 40"></polygon>
    </defs>
    <g id="Homepage" stroke="none" stroke-width="1" fill="none" fill-rule="evenodd">
        <g id="RED-SEA-1.2-Partnerships-3-Copy" transform="translate(-850.000000, -3661.000000)">
            <g id="Footer" transform="translate(0.000000, 3587.000000)">
                <g id="Group-5" transform="translate(850.000000, 74.000000)">
                    <polygon id="Fill-1" fill="#FFFFFF" points="17.5088516 23.7469766 24.0145547 20.0000234 17.5088516 16.2530703"></polygon>
                    <g id="Group-4">
                        <mask id="mask-2" fill="white">
                            <use xlink:href="#path-1"></use>
                        </mask>
                        <g id="Clip-3"></g>
                        <path d="M32.4969453,20.0204375 C32.4969453,20.0204375 32.4969453,24.0765313 31.9824141,26.0324688 C31.6940547,27.1030156 30.8499141,27.9470781 29.7793672,28.2352031 C27.8235078,28.7500469 19.9999922,28.7500469 19.9999922,28.7500469 C19.9999922,28.7500469 12.1969453,28.7500469 10.2206172,28.2147344 C9.15007031,27.9266875 8.30592969,27.0822344 8.01757031,26.0116875 C7.50272656,24.0765313 7.50272656,19.9999688 7.50272656,19.9999688 C7.50272656,19.9999688 7.50272656,15.9441875 8.01757031,13.9883281 C8.30569531,12.9177813 9.17053906,12.0529375 10.2206172,11.7648125 C12.1764766,11.2499687 19.9999922,11.2499687 19.9999922,11.2499687 C19.9999922,11.2499687 27.8235078,11.2499687 29.7793672,11.7852812 C30.8499141,12.0733281 31.6940547,12.9177813 31.9824141,13.9883281 C32.5177266,15.9441875 32.4969453,20.0204375 32.4969453,20.0204375 M19.9999922,-3.125e-05 C8.95600781,-3.125e-05 -7.8125e-06,8.95598437 -7.8125e-06,19.9999688 C-7.8125e-06,31.0440313 8.95600781,40.0000469 19.9999922,40.0000469 C31.0439766,40.0000469 39.9999922,31.0440313 39.9999922,19.9999688 C39.9999922,8.95598437 31.0439766,-3.125e-05 19.9999922,-3.125e-05" id="Fill-2" fill="#FFFFFF" mask="url(#mask-2)"></path>
                    </g>
                </g>
            </g>
        </g>
    </g>
</svg>